<mxfile host="app.diagrams.net" modified="2024-02-12T22:40:02.978Z" agent="Mozilla/5.0 (Macintosh; Intel Mac OS X 10_15_7) AppleWebKit/605.1.15 (KHTML, like Gecko) Version/17.2.1 Safari/605.1.15" version="23.1.3" etag="Al884ebEXwUcJXHUb27R" type="github">
  <diagram name="Page-1" id="-9ZtGJTV62_gnof4hKbI">
    <mxGraphModel>
      <root>
        <mxCell id="0" />
        <mxCell id="1" parent="0" />
      </root>
    </mxGraphModel>
  </diagram>
</mxfile>
